<svg width="24" height="25" viewBox="0 0 24 25" fill="none" xmlns="http://www.w3.org/2000/svg">
<g id="instagram">
<path id="Vector" d="M17 2.11987H7C4.23858 2.11987 2 4.35845 2 7.11987V17.1199C2 19.8813 4.23858 22.1199 7 22.1199H17C19.7614 22.1199 22 19.8813 22 17.1199V7.11987C22 4.35845 19.7614 2.11987 17 2.11987Z" stroke="white" stroke-width="2" stroke-linecap="round" stroke-linejoin="round"/>
<path id="Vector_2" d="M16 11.4899C16.1234 12.3222 15.9812 13.1721 15.5937 13.9189C15.2062 14.6657 14.5931 15.2713 13.8416 15.6496C13.0901 16.0279 12.2384 16.1595 11.4077 16.0259C10.5771 15.8922 9.80971 15.5 9.21479 14.9051C8.61987 14.3102 8.22768 13.5428 8.09402 12.7121C7.96035 11.8815 8.09202 11.0298 8.47028 10.2783C8.84854 9.52678 9.45414 8.91367 10.2009 8.52617C10.9477 8.13867 11.7977 7.99652 12.63 8.11993C13.4789 8.24582 14.2648 8.64139 14.8716 9.24824C15.4785 9.85508 15.8741 10.641 16 11.4899Z" stroke="white" stroke-width="2" stroke-linecap="round" stroke-linejoin="round"/>
<path id="Vector_3" d="M17.5 6.61987H17.5098" stroke="white" stroke-width="2" stroke-linecap="round" stroke-linejoin="round"/>
</g>
</svg>
