<svg width="24" height="25" viewBox="0 0 24 25" fill="none" xmlns="http://www.w3.org/2000/svg">
<g id="twitter">
<path id="Vector" d="M23 3.11992C22.0424 3.7954 20.9821 4.31203 19.86 4.64992C19.2577 3.95743 18.4573 3.46661 17.567 3.24385C16.6767 3.02108 15.7395 3.07711 14.8821 3.40437C14.0247 3.73163 13.2884 4.31432 12.773 5.07364C12.2575 5.83295 11.9877 6.73225 12 7.64992V8.64992C10.2426 8.69549 8.50127 8.30573 6.93101 7.51536C5.36074 6.725 4.01032 5.55855 3 4.11992C3 4.11992 -1 13.1199 8 17.1199C5.94053 18.5179 3.48716 19.2188 1 19.1199C10 24.1199 21 19.1199 21 7.61992C20.9991 7.34137 20.9723 7.06351 20.92 6.78992C21.9406 5.78341 22.6608 4.51263 23 3.11992V3.11992Z" stroke="white" stroke-width="2" stroke-linecap="round" stroke-linejoin="round"/>
</g>
</svg>
