<svg width="24" height="25" viewBox="0 0 24 25" fill="none" xmlns="http://www.w3.org/2000/svg">
<g id="youtube">
<path id="Vector" d="M22.54 6.53987C22.4212 6.06528 22.1792 5.63044 21.8386 5.27928C21.498 4.92811 21.0707 4.67306 20.6 4.53987C18.88 4.11987 12 4.11987 12 4.11987C12 4.11987 5.11996 4.11987 3.39996 4.57987C2.92921 4.71306 2.50194 4.96811 2.16131 5.31928C1.82068 5.67044 1.57875 6.10528 1.45996 6.57987C1.14518 8.32543 0.991197 10.0962 0.999961 11.8699C0.988741 13.6569 1.14273 15.4412 1.45996 17.1999C1.59092 17.6597 1.83827 18.078 2.17811 18.4144C2.51794 18.7507 2.93878 18.9937 3.39996 19.1199C5.11996 19.5799 12 19.5799 12 19.5799C12 19.5799 18.88 19.5799 20.6 19.1199C21.0707 18.9867 21.498 18.7316 21.8386 18.3805C22.1792 18.0293 22.4212 17.5945 22.54 17.1199C22.8523 15.3875 23.0063 13.6302 23 11.8699C23.0112 10.0828 22.8572 8.29857 22.54 6.53987V6.53987Z" stroke="white" stroke-width="2" stroke-linecap="round" stroke-linejoin="round"/>
<path id="Vector_2" d="M9.75 15.1399L15.5 11.8699L9.75 8.59985V15.1399Z" stroke="white" stroke-width="2" stroke-linecap="round" stroke-linejoin="round"/>
</g>
</svg>
